<svg id="app-store_1_" data-name="app-store (1)" xmlns="http://www.w3.org/2000/svg" width="102.668" height="36.514" viewBox="0 0 102.668 36.514">
  <g id="Group_76" data-name="Group 76">
    <g id="Group_75" data-name="Group 75">
      <g id="Group_74" data-name="Group 74">
        <path id="Path_162" data-name="Path 162" d="M102.668,31.6V4.923A4.928,4.928,0,0,0,97.746,0H4.92A4.927,4.927,0,0,0,0,4.923V31.6a4.924,4.924,0,0,0,4.921,4.916H97.746A4.925,4.925,0,0,0,102.668,31.6Z" fill="#fff"/>
      </g>
    </g>
  </g>
  <g id="Group_73" data-name="Group 73">
    <g id="Group_72" data-name="Group 72">
      <g id="Group_71" data-name="Group 71">
        <path id="Path_161" data-name="Path 161" d="M91.8,9.758a1.079,1.079,0,0,0-1.013,1.066H92.7A.937.937,0,0,0,91.8,9.758Zm-42.89,2.393a.579.579,0,0,0,.627.628.905.905,0,0,0,.87-.6.775.775,0,0,0,.026-.243v-.6c-.78-.01-1.524.152-1.524.815ZM70.126,9.8c-.78,0-1.093.762-1.093,1.488,0,.843.421,1.48,1.085,1.48.627,0,1.067-.61,1.067-1.5,0-.682-.306-1.47-1.059-1.47Zm-7.409-.044A1.078,1.078,0,0,0,61.7,10.824h1.918A.938.938,0,0,0,62.717,9.758Zm-7.938.107a1.023,1.023,0,0,0-.976.807,1.251,1.251,0,0,0-.037.287v.708a1.007,1.007,0,0,0,1,1.032c.691,0,1.112-.548,1.112-1.435,0-.77-.367-1.4-1.1-1.4Zm38.935,14.26H88.062a2.451,2.451,0,0,0,.82,1.914,2.788,2.788,0,0,0,1.848.594,6.16,6.16,0,0,0,2.285-.4l.3,1.31a7.03,7.03,0,0,1-2.845.522A4.115,4.115,0,0,1,87.374,26.9a4.282,4.282,0,0,1-1.128-3.113A4.885,4.885,0,0,1,87.293,20.6a3.622,3.622,0,0,1,2.966-1.358A3.151,3.151,0,0,1,93.033,20.6a4.6,4.6,0,0,1,.75,2.672,4.742,4.742,0,0,1-.069.857ZM85.94,10.85v2.619h-1.1V7.1h1.1v2.59h.018a1.463,1.463,0,0,1,.548-.492,1.543,1.543,0,0,1,.762-.2c.744,0,1.524.492,1.524,1.891V13.47h-1.1V11.013c0-.628-.233-1.112-.842-1.112a.919.919,0,0,0-.861.619.977.977,0,0,0-.045.331Zm-.285,10.234a3.4,3.4,0,0,0-.593-.048,1.783,1.783,0,0,0-1.535.749,2.806,2.806,0,0,0-.471,1.673v4.447H81.17V22.094q0-1.457-.05-2.666h1.64l.07,1.623h.051a2.854,2.854,0,0,1,.942-1.34,2.262,2.262,0,0,1,1.362-.453,3,3,0,0,1,.468.032ZM80.819,9.1h.618V8.287l1.086-.3V9.1h1.048v.825H82.523v1.928c0,.538.142.807.564.807a1.461,1.461,0,0,0,.43-.045l.018.833a2.413,2.413,0,0,1-.8.117,1.266,1.266,0,0,1-.95-.358,1.722,1.722,0,0,1-.35-1.229V9.928h-.618ZM78.872,26.81a4,4,0,0,1-3.1,1.288A3.8,3.8,0,0,1,72.79,26.86a4.516,4.516,0,0,1-1.105-3.123,4.6,4.6,0,0,1,1.141-3.225A3.944,3.944,0,0,1,75.9,19.258a3.864,3.864,0,0,1,3,1.238,4.461,4.461,0,0,1,1.08,3.1,4.654,4.654,0,0,1-1.114,3.211Zm-8.79-13.242a2.112,2.112,0,0,1-2.189-2.25,2.156,2.156,0,0,1,2.26-2.313,2.094,2.094,0,0,1,2.17,2.24A2.163,2.163,0,0,1,70.082,13.568Zm1.062,7.272h-2.08v4.12c0,1.046.37,1.565,1.1,1.565A3.441,3.441,0,0,0,71,26.443l.054,1.427a4.242,4.242,0,0,1-1.465.21,2.248,2.248,0,0,1-1.743-.68,3.308,3.308,0,0,1-.631-2.284V20.84H65.98V19.43h1.237V17.878l1.847-.558v2.11h2.079ZM64.5,27.05a4.635,4.635,0,0,1-3.2,1.029,5.614,5.614,0,0,1-3.046-.732l.437-1.569a5.265,5.265,0,0,0,2.717.732,2.59,2.59,0,0,0,1.66-.479,1.57,1.57,0,0,0,.59-1.287,1.646,1.646,0,0,0-.486-1.2,4.61,4.61,0,0,0-1.622-.906q-3.084-1.149-3.086-3.364A2.969,2.969,0,0,1,59.552,16.9a4.321,4.321,0,0,1,2.887-.923,5.741,5.741,0,0,1,2.67.557l-.476,1.535a4.648,4.648,0,0,0-2.255-.542,2.348,2.348,0,0,0-1.56.487,1.414,1.414,0,0,0-.47,1.068,1.455,1.455,0,0,0,.54,1.153,6.148,6.148,0,0,0,1.708.9,5.737,5.737,0,0,1,2.235,1.431,3,3,0,0,1,.715,2.039A3.142,3.142,0,0,1,64.5,27.051ZM55.022,13.568a1.5,1.5,0,0,1-1.381-.753h-.018l-.054.655h-.942c.019-.3.037-.78.037-1.229V7.1h1.1V9.7h.018a1.579,1.579,0,0,1,1.4-.7c1.067,0,1.829.888,1.82,2.215a2.091,2.091,0,0,1-1.981,2.35ZM53.728,26.984A3.453,3.453,0,0,1,51.115,28.1a2.607,2.607,0,0,1-2.418-1.2v4.451H46.812v-9.13q0-1.359-.07-2.785H48.4l.109,1.343h.032a3.355,3.355,0,0,1,5.364-.329,4.664,4.664,0,0,1,1.005,3.121,4.792,4.792,0,0,1-1.178,3.42ZM46.375,13.47h-1.1V7.1h1.1Zm-1.96,13.514A3.453,3.453,0,0,1,41.8,28.1a2.609,2.609,0,0,1-2.42-1.2v4.451H37.5v-9.13q0-1.359-.072-2.785h1.657l.1,1.343h.033a3.359,3.359,0,0,1,5.368-.329,4.679,4.679,0,0,1,1,3.121A4.791,4.791,0,0,1,44.415,26.984ZM37.04,12.268c0-1.094.977-1.659,2.59-1.65v-.071c0-.287-.117-.762-.888-.762a2.3,2.3,0,0,0-1.173.323l-.216-.718A3.146,3.146,0,0,1,38.931,9a1.635,1.635,0,0,1,1.8,1.846v1.57a5.871,5.871,0,0,0,.072,1.049h-1l-.08-.485H39.7a1.594,1.594,0,0,1-1.29.583,1.3,1.3,0,0,1-1.372-1.3Zm-2.27,1.2H33.684L32.061,9.1h1.193l.707,2.215c.127.385.216.735.3,1.094h.027c.08-.359.18-.7.3-1.094l.7-2.215h1.156Zm-.429,14.436-1.1-3.45H29.422l-1.047,3.45H26.423L30.2,16.15h2.34l3.8,11.756Zm-13.31-.442A1.932,1.932,0,0,1,19.1,29.392h-8.28a1.932,1.932,0,0,1-1.934-1.928V9.064a1.933,1.933,0,0,1,1.933-1.93H19.1a1.934,1.934,0,0,1,1.933,1.93ZM28.374,7.426h1.408l1.963,6.044H30.553l-.547-1.713H28.1l-.52,1.713H26.437ZM43.541,9.1V13.47h-1.1V9.1Zm-.546-1.82a.6.6,0,1,1-.619.6.588.588,0,0,1,.619-.6Zm6.52,2.5a2.3,2.3,0,0,0-1.174.323l-.216-.718A3.149,3.149,0,0,1,49.7,9a1.636,1.636,0,0,1,1.8,1.846v1.57a5.986,5.986,0,0,0,.07,1.049h-.994l-.08-.485h-.027a1.6,1.6,0,0,1-1.292.583,1.3,1.3,0,0,1-1.372-1.3c0-1.094.977-1.659,2.591-1.65v-.071c0-.287-.116-.762-.887-.762ZM58.261,7.1h1.1V13.47h-1.1ZM62.781,9a1.9,1.9,0,0,1,1.882,2.126,2.836,2.836,0,0,1-.035.466H61.7a1.182,1.182,0,0,0,1.344,1.13,3.5,3.5,0,0,0,1.21-.2l.162.754a3.948,3.948,0,0,1-1.524.277,2.065,2.065,0,0,1-2.25-2.2A2.162,2.162,0,0,1,62.78,9Zm11.58.1.053.654h.027A1.6,1.6,0,0,1,75.84,9c.762,0,1.551.492,1.551,1.873V13.47h-1.1V11c0-.627-.233-1.1-.833-1.1a.927.927,0,0,0-.862.646,1.03,1.03,0,0,0-.053.35V13.47h-1.1V10.4c0-.5-.018-.923-.036-1.3Zm17.5-.1a1.9,1.9,0,0,1,1.883,2.126,2.706,2.706,0,0,1-.036.466H90.783a1.183,1.183,0,0,0,1.345,1.13,3.5,3.5,0,0,0,1.21-.2l.161.754a3.94,3.94,0,0,1-1.524.277,2.065,2.065,0,0,1-2.25-2.2A2.163,2.163,0,0,1,91.859,9Zm-62.507.43c-.117-.367-.216-.78-.305-1.128h-.019c-.089.349-.188.77-.287,1.129l-.465,1.488h1.55ZM39.63,12.18a.775.775,0,0,0,.026-.243v-.6c-.78-.01-1.524.152-1.524.815a.579.579,0,0,0,.628.628.906.906,0,0,0,.87-.6Zm50.489,8.365a1.807,1.807,0,0,0-1.5.771,2.8,2.8,0,0,0-.558,1.462h3.924a2.6,2.6,0,0,0-.364-1.447,1.659,1.659,0,0,0-1.5-.786ZM31.29,17.72c-.118.5-.3,1.237-.56,2.216l-.977,3.07h3.156l-.99-3.07q-.161-.474-.6-2.216Zm19.5,3.033a1.95,1.95,0,0,0-1.263.46,2.179,2.179,0,0,0-.743,1.218,2.464,2.464,0,0,0-.085.576v1.411a2.258,2.258,0,0,0,.565,1.563,1.89,1.89,0,0,0,1.472.634,1.926,1.926,0,0,0,1.66-.819,3.607,3.607,0,0,0,.6-2.165,3.5,3.5,0,0,0-.558-2.038,1.946,1.946,0,0,0-1.643-.84Zm25.045-.117a1.884,1.884,0,0,0-1.723,1.008,3.814,3.814,0,0,0-.508,2.032,3.742,3.742,0,0,0,.508,2,1.9,1.9,0,0,0,1.71,1.007,1.872,1.872,0,0,0,1.687-1.028,3.731,3.731,0,0,0,.526-2.012,3.805,3.805,0,0,0-.5-2A1.874,1.874,0,0,0,75.833,20.636Zm-34.36.117a1.954,1.954,0,0,0-1.263.46,2.166,2.166,0,0,0-.742,1.218,2.511,2.511,0,0,0-.086.576v1.411a2.254,2.254,0,0,0,.566,1.563,1.889,1.889,0,0,0,1.473.634,1.926,1.926,0,0,0,1.658-.819,3.614,3.614,0,0,0,.592-2.165,3.477,3.477,0,0,0-.557-2.038,1.939,1.939,0,0,0-1.641-.84ZM10.059,25.512h9.8V11.02h-9.8Zm4.9.855a1,1,0,1,0,1,1A1,1,0,0,0,14.956,26.367ZM14,9.542h1.92a.227.227,0,1,0,0-.453H14a.227.227,0,1,0,0,.453Z" fill="#464749"/>
      </g>
    </g>
  </g>
</svg>
