<svg xmlns="http://www.w3.org/2000/svg" width="108.907" height="36.483" viewBox="0 0 108.907 36.483">
  <g id="google-play" transform="translate(-0.419 -0.517)">
    <g id="Group_108" data-name="Group 108">
      <g id="Group_78" data-name="Group 78">
        <g id="Group_77" data-name="Group 77">
          <path id="Path_163" data-name="Path 163" d="M109.326,31.6V5.912a5.4,5.4,0,0,0-5.394-5.4H5.815a5.4,5.4,0,0,0-5.4,5.395V31.605A5.4,5.4,0,0,0,5.815,37h98.117a5.4,5.4,0,0,0,5.394-5.4Z" fill="#fff"/>
        </g>
      </g>
      <g id="Group_91" data-name="Group 91">
        <g id="Group_79" data-name="Group 79">
          <path id="Path_164" data-name="Path 164" d="M34.743,9.889q.4-1.173.4-1.261h.036a12.751,12.751,0,0,0,.387,1.26Zm1.867,1.277A13.183,13.183,0,0,0,36.132,9.7a12.42,12.42,0,0,1-.478-1.475H34.8a11.258,11.258,0,0,1-.527,1.5,15.355,15.355,0,0,0-.528,1.447h.68a4.266,4.266,0,0,1,.213-.845h1.044a4.814,4.814,0,0,1,.206.845Z" fill="#464649"/>
        </g>
        <g id="Group_80" data-name="Group 80">
          <path id="Path_165" data-name="Path 165" d="M39.525,11.166h-.558a5.632,5.632,0,0,0-.622-.98A5.4,5.4,0,0,1,37.6,8.91h-.035a8.107,8.107,0,0,1,.056.895q0,.558.031,1.361H37.1q.069-1.471,0-2.943h.672a4.265,4.265,0,0,0,.558.956,5.655,5.655,0,0,1,.683,1.2h.034a8.487,8.487,0,0,1-.054-.9c0-.409-.011-.827-.032-1.257h.565q-.064,1.471,0,2.943Z" fill="#464649"/>
        </g>
        <g id="Group_81" data-name="Group 81">
          <path id="Path_166" data-name="Path 166" d="M42.184,9.69a1.164,1.164,0,0,1-.234.736.857.857,0,0,1-.72.3,1.532,1.532,0,0,1-.293-.029q-.023-.535-.023-1.071,0-.493-.023-.945a2.42,2.42,0,0,1,.267-.02.964.964,0,0,1,.773.3,1.087,1.087,0,0,1,.253.732Zm.618-.1a1.408,1.408,0,0,0-.368-.976,1.525,1.525,0,0,0-1.183-.407c-.04,0-.123,0-.251.007q-.145.006-.29.007h-.4q.03.581.029,1.4,0,.855-.03,1.54c.393.017.7.026.923.026a1.438,1.438,0,0,0,1.153-.48,1.67,1.67,0,0,0,.412-1.12Z" fill="#464649"/>
        </g>
        <g id="Group_82" data-name="Group 82">
          <path id="Path_167" data-name="Path 167" d="M44.256,9.586q-.1,0-.21,0c0-.376-.009-.68-.025-.914a2.088,2.088,0,0,1,.375-.031q.579,0,.579.45,0,.5-.72.5Zm1.567,1.58a8.032,8.032,0,0,0-.464-1.073.7.7,0,0,0-.4-.355V9.7a.8.8,0,0,0,.592-.784q0-.709-1.037-.71c-.122,0-.256,0-.4.007s-.238.007-.283.007h-.39q.059,1.471,0,2.943h.627q-.02-.586-.02-1.173c.08,0,.163,0,.251,0a.528.528,0,0,1,.452.187,4.471,4.471,0,0,1,.4.988h.669Z" fill="#464649"/>
        </g>
        <g id="Group_83" data-name="Group 83">
          <path id="Path_168" data-name="Path 168" d="M48.44,9.706a1.183,1.183,0,0,1-.232.747.687.687,0,0,1-.56.3.744.744,0,0,1-.6-.3,1.165,1.165,0,0,1-.243-.765,1.185,1.185,0,0,1,.23-.748.69.69,0,0,1,.561-.3.747.747,0,0,1,.6.294,1.17,1.17,0,0,1,.242.767Zm.623-.066a1.474,1.474,0,0,0-.4-1.067,1.33,1.33,0,0,0-1-.418,1.373,1.373,0,0,0-1.05.457,1.62,1.62,0,0,0-.426,1.15,1.477,1.477,0,0,0,.4,1.066,1.33,1.33,0,0,0,1,.42,1.378,1.378,0,0,0,1.051-.457,1.625,1.625,0,0,0,.425-1.15Z" fill="#464649"/>
        </g>
        <g id="Group_84" data-name="Group 84">
          <path id="Path_169" data-name="Path 169" d="M50.34,11.166H49.7q.057-1.471,0-2.943h.64q-.058,1.471,0,2.943Z" fill="#464649"/>
        </g>
        <g id="Group_85" data-name="Group 85">
          <path id="Path_170" data-name="Path 170" d="M53,9.69a1.169,1.169,0,0,1-.233.736.859.859,0,0,1-.72.3,1.526,1.526,0,0,1-.294-.029q-.023-.535-.023-1.071,0-.494-.023-.945a2.262,2.262,0,0,1,.267-.02.962.962,0,0,1,.773.3A1.092,1.092,0,0,1,53,9.69Zm.617-.1a1.407,1.407,0,0,0-.367-.976,1.525,1.525,0,0,0-1.183-.407c-.04,0-.123,0-.251.007q-.145.006-.29.007h-.4q.03.581.03,1.4,0,.855-.03,1.54.588.026.922.026a1.437,1.437,0,0,0,1.153-.48,1.663,1.663,0,0,0,.411-1.12Z" fill="#464649"/>
        </g>
        <g id="Group_86" data-name="Group 86">
          <path id="Path_171" data-name="Path 171" d="M56.1,9.889q.4-1.173.4-1.261h.036a12.751,12.751,0,0,0,.387,1.26Zm1.867,1.277A13.183,13.183,0,0,0,57.486,9.7a12.42,12.42,0,0,1-.478-1.475h-.855a11.258,11.258,0,0,1-.527,1.5q-.528,1.359-.528,1.447h.68a4.309,4.309,0,0,1,.212-.845h1.045a4.767,4.767,0,0,1,.205.845Z" fill="#464649"/>
        </g>
        <g id="Group_87" data-name="Group 87">
          <path id="Path_172" data-name="Path 172" d="M60.017,9.118c0,.348-.274.522-.825.522-.05,0-.093,0-.13,0,0-.36-.009-.683-.025-.968a1.778,1.778,0,0,1,.339-.034c.428,0,.641.161.641.484Zm.584-.125a.66.66,0,0,0-.3-.59,1.3,1.3,0,0,0-.726-.194c-.116,0-.253,0-.412.007s-.265.007-.32.007h-.394c.02.393.03.86.03,1.4q0,.885-.03,1.54h.635q-.022-.561-.024-1.122c.03,0,.08,0,.151,0a1.794,1.794,0,0,0,.985-.257A.883.883,0,0,0,60.6,8.993Z" fill="#464649"/>
        </g>
        <g id="Group_88" data-name="Group 88">
          <path id="Path_173" data-name="Path 173" d="M62.729,9.118q0,.522-.825.522-.066,0-.132,0c0-.36-.007-.683-.024-.968a1.8,1.8,0,0,1,.34-.034q.64,0,.64.484Zm.287-.715a1.3,1.3,0,0,0-.726-.194c-.116,0-.253,0-.411.007s-.265.007-.321.007h-.394c.02.393.03.86.03,1.4q0,.885-.03,1.54H61.8q-.022-.561-.025-1.122c.03,0,.08,0,.152,0a1.793,1.793,0,0,0,.984-.257.882.882,0,0,0,.4-.8.659.659,0,0,0-.295-.59Z" fill="#464649"/>
        </g>
        <g id="Group_89" data-name="Group 89">
          <path id="Path_174" data-name="Path 174" d="M67.12,9.706a1.182,1.182,0,0,1-.23.747.688.688,0,0,1-.56.3.744.744,0,0,1-.6-.3,1.165,1.165,0,0,1-.243-.765,1.185,1.185,0,0,1,.23-.748.69.69,0,0,1,.561-.3.747.747,0,0,1,.6.294,1.17,1.17,0,0,1,.242.767Zm.624-.066a1.474,1.474,0,0,0-.4-1.067,1.33,1.33,0,0,0-1-.418,1.373,1.373,0,0,0-1.05.457,1.62,1.62,0,0,0-.426,1.15,1.477,1.477,0,0,0,.4,1.066,1.33,1.33,0,0,0,1,.42,1.378,1.378,0,0,0,1.051-.457,1.624,1.624,0,0,0,.424-1.15Z" fill="#464649"/>
        </g>
        <g id="Group_90" data-name="Group 90">
          <path id="Path_175" data-name="Path 175" d="M70.809,11.166h-.558a5.558,5.558,0,0,0-.622-.98,5.314,5.314,0,0,1-.741-1.276h-.037a7.886,7.886,0,0,1,.057.895q0,.558.031,1.361h-.555q.067-1.471,0-2.943h.67a4.294,4.294,0,0,0,.559.956,5.654,5.654,0,0,1,.683,1.2h.034a8.48,8.48,0,0,1-.055-.9c0-.409-.01-.827-.031-1.257h.565q-.064,1.471,0,2.943Z" fill="#464649"/>
        </g>
      </g>
      <g id="Group_102" data-name="Group 102">
        <g id="Group_92" data-name="Group 92">
          <path id="Path_176" data-name="Path 176" d="M44.141,20.6a4.712,4.712,0,0,1-1.3,3.49A5.065,5.065,0,0,1,39,25.636a5.389,5.389,0,0,1-5.433-5.464A5.387,5.387,0,0,1,39,14.709a5.4,5.4,0,0,1,2.148.438,4.307,4.307,0,0,1,1.636,1.169l-.92.92A3.532,3.532,0,0,0,39,15.994a4.046,4.046,0,0,0-4.061,4.178,4.112,4.112,0,0,0,6.983,3.009,3.277,3.277,0,0,0,.876-2.118H39V19.807h5.07a4.548,4.548,0,0,1,.072.789Z" fill="#464649"/>
        </g>
        <g id="Group_93" data-name="Group 93">
          <path id="Path_177" data-name="Path 177" d="M46.04,21.823a2.564,2.564,0,0,1,.695-1.878,2.26,2.26,0,0,1,3.286,0,2.569,2.569,0,0,1,.694,1.878,2.565,2.565,0,0,1-.694,1.877,2.26,2.26,0,0,1-3.286,0,2.561,2.561,0,0,1-.694-1.877Zm-1.344,0a3.791,3.791,0,0,0,1.038,2.724,3.754,3.754,0,0,0,5.288,0,3.793,3.793,0,0,0,1.037-2.724A3.8,3.8,0,0,0,51.022,19.1a3.758,3.758,0,0,0-5.289,0A3.8,3.8,0,0,0,44.7,21.823Z" fill="#464649"/>
        </g>
        <g id="Group_94" data-name="Group 94">
          <path id="Path_178" data-name="Path 178" d="M53.856,21.823a2.567,2.567,0,0,1,.693-1.878,2.263,2.263,0,0,1,3.288,0,2.572,2.572,0,0,1,.693,1.878,2.568,2.568,0,0,1-.693,1.877,2.263,2.263,0,0,1-3.288,0A2.568,2.568,0,0,1,53.856,21.823Zm-1.344,0a3.794,3.794,0,0,0,1.037,2.724,3.754,3.754,0,0,0,5.288,0,3.789,3.789,0,0,0,1.037-2.724A3.794,3.794,0,0,0,58.837,19.1a3.757,3.757,0,0,0-5.288,0,3.8,3.8,0,0,0-1.037,2.725Z" fill="#464649"/>
        </g>
        <g id="Group_95" data-name="Group 95">
          <path id="Path_179" data-name="Path 179" d="M62.343,23.7a2.615,2.615,0,0,1-.672-1.877,2.617,2.617,0,0,1,.672-1.878,2.193,2.193,0,0,1,3.221-.007,2.629,2.629,0,0,1,.664,1.885,2.622,2.622,0,0,1-.664,1.884,2.193,2.193,0,0,1-3.221-.007Zm1.505,5.09a3.755,3.755,0,0,0,2.6-.956,3.567,3.567,0,0,0,1.066-2.8V18.243H66.228v.994H66.17a2.733,2.733,0,0,0-.993-.876,2.978,2.978,0,0,0-1.446-.35,3.148,3.148,0,0,0-2.4,1.094,3.863,3.863,0,0,0-1.008,2.718,3.864,3.864,0,0,0,1.008,2.717,3.15,3.15,0,0,0,2.4,1.1,2.981,2.981,0,0,0,1.446-.351,2.735,2.735,0,0,0,.993-.877h.058V25.1a2.5,2.5,0,0,1-.635,1.8,2.3,2.3,0,0,1-1.745.664,2.08,2.08,0,0,1-1.25-.394,2.008,2.008,0,0,1-.751-.978l-1.227.51a3.718,3.718,0,0,0,1.153,1.454,3.243,3.243,0,0,0,2.075.636Z" fill="#464649"/>
        </g>
        <g id="Group_96" data-name="Group 96">
          <path id="Path_180" data-name="Path 180" d="M70.129,25.4H68.785V14.942h1.344Z" fill="#464649"/>
        </g>
        <g id="Group_97" data-name="Group 97">
          <path id="Path_181" data-name="Path 181" d="M72.349,20.961A2.388,2.388,0,0,1,73.1,19.7a1.927,1.927,0,0,1,1.292-.467,2.01,2.01,0,0,1,1.541.555,1.906,1.906,0,0,1,.563,1.17Zm2.22,4.675a3.352,3.352,0,0,0,1.972-.563,3.208,3.208,0,0,0,1.154-1.4l-1.2-.5a1.928,1.928,0,0,1-1.958,1.227,2.2,2.2,0,0,1-1.556-.628,2.429,2.429,0,0,1-.723-1.709h5.653l.015-.248a3.938,3.938,0,0,0-.957-2.776,3.306,3.306,0,0,0-2.549-1.037,3.2,3.2,0,0,0-2.52,1.125,3.943,3.943,0,0,0-.986,2.688,3.83,3.83,0,0,0,1.016,2.731A3.449,3.449,0,0,0,74.569,25.636Z" fill="#464649"/>
        </g>
        <g id="Group_98" data-name="Group 98">
          <path id="Path_182" data-name="Path 182" d="M83.217,16.228h2.25a1.736,1.736,0,0,1,1.358.57,1.8,1.8,0,0,1,0,2.512,1.74,1.74,0,0,1-1.36.57H83.217Zm0,4.937h2.22a3.3,3.3,0,0,0,2.3-.883,3.038,3.038,0,0,0,0-4.456,3.308,3.308,0,0,0-2.3-.883H81.873V25.4h1.344Z" fill="#464649"/>
        </g>
        <g id="Group_99" data-name="Group 99">
          <path id="Path_183" data-name="Path 183" d="M90.93,25.4H89.586V14.942H90.93Z" fill="#464649"/>
        </g>
        <g id="Group_100" data-name="Group 100">
          <path id="Path_184" data-name="Path 184" d="M93.574,24.1a.957.957,0,0,1-.453-.833,1.27,1.27,0,0,1,.5-.993,2.215,2.215,0,0,1,1.475-.424,2.648,2.648,0,0,1,1.709.468,1.922,1.922,0,0,1-.679,1.467,2.189,2.189,0,0,1-1.512.621,1.805,1.805,0,0,1-1.037-.306Zm.818,1.534a2.636,2.636,0,0,0,2.352-1.228H96.8V25.4h1.286V21.078a2.868,2.868,0,0,0-.906-2.264,3.309,3.309,0,0,0-2.279-.8,3.126,3.126,0,0,0-1.928.548,2.791,2.791,0,0,0-.98,1.19l1.228.526a1.431,1.431,0,0,1,.65-.76,2.07,2.07,0,0,1,1.06-.277,1.938,1.938,0,0,1,1.328.475,1.594,1.594,0,0,1,.54,1.263v.2a3.845,3.845,0,0,0-1.942-.438,3.684,3.684,0,0,0-2.235.664,2.15,2.15,0,0,0-.906,1.834,2.175,2.175,0,0,0,.768,1.738,2.824,2.824,0,0,0,1.906.658Z" fill="#464649"/>
        </g>
        <g id="Group_101" data-name="Group 101">
          <path id="Path_185" data-name="Path 185" d="M101.01,28.557H99.622l1.665-3.608-2.95-6.706H99.8l2.133,5.143h.03l2.074-5.143h1.46Z" fill="#464649"/>
        </g>
      </g>
      <g id="Group_107" data-name="Group 107">
        <g id="Group_103" data-name="Group 103">
          <path id="Path_186" data-name="Path 186" d="M8.5,19.994q0-5.01,0-10.022a1.507,1.507,0,0,1,.37-1.094c.112-.12.194-.152.332-.011q3.372,3.441,6.754,6.87,2.19,2.224,4.382,4.442c.142.144.154.219,0,.368Q14.964,25.891,9.606,31.252a.368.368,0,0,1-.58.034,1.363,1.363,0,0,1-.53-1.158q0-2.967,0-5.936V20Z" fill="#464749"/>
        </g>
        <g id="Group_104" data-name="Group 104">
          <path id="Path_187" data-name="Path 187" d="M9.783,8.5a1.212,1.212,0,0,1,.651.181q6.862,3.846,13.728,7.687c.211.118.207.183.044.343q-1.533,1.512-3.053,3.037c-.11.11-.176.174-.323.024Q15.37,14.2,9.9,8.641c-.03-.031-.055-.068-.117-.144Z" fill="#464749"/>
        </g>
        <g id="Group_105" data-name="Group 105">
          <path id="Path_188" data-name="Path 188" d="M10.807,31.166q4.98-5.036,9.957-10.076c.206-.21.3-.181.486.01.841.877,1.7,1.742,2.554,2.6.15.151.163.213-.042.325q-6.395,3.5-12.783,7.014a1.889,1.889,0,0,0-.172.125Z" fill="#464749"/>
        </g>
        <g id="Group_106" data-name="Group 106">
          <path id="Path_189" data-name="Path 189" d="M29.779,20.087a1.052,1.052,0,0,1-.46.84,6.058,6.058,0,0,1-.636.387c-1.29.713-2.582,1.419-3.868,2.136a.289.289,0,0,1-.42-.056q-1.374-1.419-2.769-2.817c-.135-.136-.139-.21,0-.347q1.623-1.6,3.23-3.215a.259.259,0,0,1,.374-.052c1.273.722,2.552,1.433,3.83,2.149A1.174,1.174,0,0,1,29.779,20.087Z" fill="#464749"/>
        </g>
      </g>
    </g>
  </g>
</svg>
