<?xml version="1.0" encoding="UTF-8" standalone="no"?>
<svg
   xmlns:dc="http://purl.org/dc/elements/1.1/"
   xmlns:cc="http://creativecommons.org/ns#"
   xmlns:rdf="http://www.w3.org/1999/02/22-rdf-syntax-ns#"
   xmlns:svg="http://www.w3.org/2000/svg"
   xmlns="http://www.w3.org/2000/svg"
   xmlns:sodipodi="http://sodipodi.sourceforge.net/DTD/sodipodi-0.dtd"
   xmlns:inkscape="http://www.inkscape.org/namespaces/inkscape"
   inkscape:version="1.0 (4035a4fb49, 2020-05-01)"
   height="94.089996"
   width="283.48001"
   sodipodi:docname="SIDF - Arabic-02.svg"
   id="svg40"
   xml:space="preserve"
   viewBox="0 0 283.48002 94.089994"
   y="0px"
   x="0px"
   version="1.1"><metadata
   id="metadata46"><rdf:RDF><cc:Work
       rdf:about=""><dc:format>image/svg+xml</dc:format><dc:type
         rdf:resource="http://purl.org/dc/dcmitype/StillImage" /><dc:title></dc:title></cc:Work></rdf:RDF></metadata><defs
   id="defs44" /><sodipodi:namedview
   inkscape:current-layer="svg40"
   inkscape:window-maximized="1"
   inkscape:window-y="-9"
   inkscape:window-x="-9"
   inkscape:cy="71.740002"
   inkscape:cx="137.825"
   inkscape:zoom="3.9201688"
   showgrid="false"
   id="namedview42"
   inkscape:window-height="1001"
   inkscape:window-width="1920"
   inkscape:pageshadow="2"
   inkscape:pageopacity="0"
   guidetolerance="10"
   gridtolerance="10"
   objecttolerance="10"
   borderopacity="1"
   bordercolor="#666666"
   pagecolor="#ffffff" />
<style
   id="style2"
   type="text/css">
	.st0{fill:#59BA48;}
	.st1{fill:#515458;}
</style>
<g
   transform="translate(-16.25,-15.45)"
   id="Layer_1">
	<g
   id="g8">
		<polygon
   id="polygon4"
   points="196.55,60.16 209.76,83.06 227.16,83.06 213.95,60.16 231.08,30.58 265.2,30.58 282.32,60.16 265.2,89.73 257.15,89.73 248.41,104.87 273.93,104.87 299.73,60.16 273.93,15.45 222.34,15.45 "
   class="st0" />
		<polygon
   id="polygon6"
   points="249.03,60.16 231.97,89.73 197.79,89.73 180.73,60.16 197.79,30.58 205.9,30.58 214.57,15.45 189.12,15.45 163.26,60.16 189.12,104.87 240.71,104.87 266.5,60.16 253.3,37.25 235.83,37.25 "
   class="st0" />
	</g>
	<g
   id="g36">
		<path
   id="path10"
   d="m 30.36,31.68 c 1.65,0 2.89,-1.38 2.89,-3.03 0,-1.79 -1.24,-3.16 -2.89,-3.16 -1.65,0 -2.96,1.38 -2.96,3.16 0.01,1.65 1.31,3.03 2.96,3.03 z"
   class="st1" />
		<path
   id="path12"
   d="m 29.86,103.35 c -1.65,0 -2.96,1.38 -2.96,3.16 0,1.65 1.31,3.03 2.96,3.03 1.65,0 2.89,-1.38 2.89,-3.03 -0.01,-1.78 -1.24,-3.16 -2.89,-3.16 z"
   class="st1" />
		<path
   id="path14"
   d="m 42.33,43.44 c 0,-7.02 -2.13,-9.15 -6.67,-9.15 h -3.1 c -3.99,0 -6.95,2.89 -6.95,6.95 v 3.16 c 0,3.92 2.34,7.15 8.32,7.15 h 3.3 v 3.71 h -10.8 c -2.41,0 -5.09,-1.51 -5.09,-3.92 v -7.7 l -5.09,0.89 v 7.57 c 0,5.02 5.23,8.25 8.12,8.25 H 42.32 V 43.44 Z m -9.22,3.03 c -1.65,0 -2.41,-0.62 -2.41,-2.13 v -2.2 c 0,-1.51 0.89,-2.75 2.75,-2.75 h 1.24 c 1.86,0 2.55,1.24 2.55,2.75 v 4.33 z"
   class="st1" />
		<path
   id="path16"
   d="M 135.88,51.56 V 25.28 l -5.09,0.89 v 20.29 h -6.53 v -6.6 c 0,-3.03 -1.65,-5.64 -6.67,-5.64 h -3.85 c -3.93,0 -6.6,2.63 -9.42,6.82 v -5.99 l -4.81,0.89 V 46.46 H 93.04 V 35.05 l -5.09,0.89 V 46.46 H 82.54 L 76.81,33.12 71.65,34.01 77,46.46 h -9.88 v 5.09 h 68.76 z M 112.84,39.31 h 3.3 c 1.93,0 3.03,0.96 3.03,2.61 v 4.54 h -14.46 c 2.6,-3.05 5.42,-7.15 8.13,-7.15 z"
   class="st1" />
		<path
   id="path18"
   d="m 90.48,32.71 c 1.65,0 2.96,-1.44 2.96,-3.16 0,-1.72 -1.31,-3.03 -2.96,-3.03 -1.65,0 -3.03,1.31 -3.03,3.03 0.01,1.72 1.38,3.16 3.03,3.16 z"
   class="st1" />
		<path
   id="path20"
   d="m 87.46,68.89 c 0,1.72 1.38,3.16 3.03,3.16 1.65,0 2.96,-1.44 2.96,-3.16 0,-1.72 -1.31,-3.03 -2.96,-3.03 -1.65,0 -3.03,1.31 -3.03,3.03 z"
   class="st1" />
		<path
   id="path22"
   d="m 37.59,31.68 c 1.65,0 2.96,-1.38 2.96,-3.03 0,-1.79 -1.31,-3.16 -2.96,-3.16 -1.51,0 -2.96,1.38 -2.96,3.16 0,1.65 1.44,3.03 2.96,3.03 z"
   class="st1" />
		<path
   id="path24"
   d="m 54.58,51.56 h 3.3 v 1.51 c 0,1.79 -1.38,2.2 -4.88,2.2 h -5.1 v 5.09 h 6.53 c 5.98,0 8.53,-1.38 8.53,-7.29 v -9.63 c 0,-7.02 -2.13,-9.15 -6.67,-9.15 h -3.1 c -3.99,0 -6.95,2.89 -6.95,6.95 v 3.16 c 0.01,3.93 2.35,7.16 8.34,7.16 z m -3.24,-9.43 c 0,-1.51 0.89,-2.75 2.75,-2.75 h 1.24 c 1.86,0 2.55,1.24 2.55,2.75 v 4.33 h -4.13 c -1.65,0 -2.41,-0.62 -2.41,-2.13 z"
   class="st1" />
		<polygon
   id="polygon26"
   points="146.13,25.28 141.04,26.18 141.04,51.56 146.13,51.56 "
   class="st1" />
		<polygon
   id="polygon28"
   points="146.13,64.63 141.04,65.52 141.04,90.9 146.13,90.9 "
   class="st1" />
		<path
   id="path30"
   d="m 37.08,103.35 c -1.51,0 -2.96,1.38 -2.96,3.16 0,1.65 1.44,3.03 2.96,3.03 1.65,0 2.96,-1.38 2.96,-3.03 0,-1.78 -1.31,-3.16 -2.96,-3.16 z"
   class="st1" />
		<path
   id="path32"
   d="m 62.18,90.9 v -5.09 h -7.29 c -1.1,0 -2.06,-1.03 -2.06,-1.99 v -2.96 c 0,-0.96 0.96,-1.93 2.06,-1.93 h 5.43 v -5.09 h -7.5 c -2.82,0 -5.09,2.34 -5.09,4.88 v 3.71 c 0,1.59 0.36,2.58 1.06,3.37 h -13.5 v 5.09 c 0.96,0 1.93,0 4.81,0 v 2.75 c 0,1.65 -0.76,2.27 -2.41,2.27 h -8.12 c -1.86,0 -2.82,-1.17 -2.82,-4.06 V 83.8 l -5.09,0.89 v 7.7 c 0,4.95 2.89,8.6 6.81,8.6 h 9.97 c 4.06,0 6.74,-2.75 6.74,-7.02 v -3.1 h 17 z"
   class="st1" />
		<path
   id="path34"
   d="m 135.88,64.63 -5.09,0.89 v 20.29 h -6.53 v -6.6 c 0,-3.03 -1.65,-5.64 -6.67,-5.64 h -3.85 c -3.93,0 -6.6,2.63 -9.42,6.77 V 74.4 l -4.81,0.89 V 85.81 H 93.04 V 75.29 l -5.09,0.89 v 9.63 H 71.68 V 64.7 l -5.09,0.89 V 90.9 h 69.29 z m -31.17,21.18 c 2.61,-3.06 5.43,-7.15 8.13,-7.15 h 3.3 c 1.93,0 3.03,0.96 3.03,2.61 v 4.54 z"
   class="st1" />
	</g>
</g>
<g
   transform="translate(-16.25,-15.45)"
   id="Layer_2">
</g>
</svg>
